<svg width="504" height="240" viewBox="0 0 504 240" fill="none" xmlns="http://www.w3.org/2000/svg">
<path fill-rule="evenodd" clip-rule="evenodd" d="M143.972 1.52906C130.898 5.04406 128.645 7.12906 94.3298 47.4461L70.4978 75.4461L48.9329 75.9461C27.8829 76.4341 27.2208 76.5141 21.2568 79.2701C13.6098 82.8041 6.81085 89.6361 3.16685 97.4461L0.36685 103.446L0.0588501 131.257C-0.13515 148.7 0.15685 161.026 0.84085 164.322C5.26185 185.617 23.4069 199.946 45.9519 199.946H52.6159L52.1459 191.196C50.1969 154.91 79.5179 123.981 115.867 123.981C152.216 123.981 181.537 154.91 179.588 191.196L179.118 199.946H259.867H340.616L340.146 191.196C338.197 154.91 367.518 123.981 403.867 123.981C440.279 123.981 469.539 154.906 467.581 191.321L467.104 200.197L472.063 199.609C483.83 198.216 495.416 189.651 500.543 178.556L503.367 172.446V145.946V119.446L500.742 113.946C497.083 106.281 492.025 100.842 485.148 97.1761C479.913 94.3861 473.884 93.0621 429.562 84.9721L379.848 75.8961L339.107 42.0991C316.7 23.5101 296.342 7.12007 293.867 5.67607C284.153 0.00806665 283.194 -0.0599345 213.407 0.0120655C160.747 0.0660655 148.408 0.335064 143.972 1.52906ZM172.1 24.7151L175.367 27.9841V48.4461V68.9081L172.099 72.1771L168.831 75.4461L138.891 75.7381C109.878 76.0211 108.888 75.9671 106.909 73.9881C105.786 72.8651 104.867 71.0621 104.867 69.9821C104.867 67.7281 139.32 26.6471 144.169 23.1191C147.127 20.9671 148.171 20.8171 158.1 21.1191C168.711 21.4421 168.871 21.4831 172.1 24.7151ZM280.946 23.9261C283.377 25.5651 296.617 35.8221 310.367 46.7201C332.383 64.1701 335.403 66.9031 335.671 69.6151C336.332 76.3081 339.339 76.0211 271.792 75.7181L210.905 75.4461L207.636 72.1771L204.367 68.9081V48.5071C204.367 28.1311 204.37 28.1041 206.867 25.4171C208.242 23.9381 210.267 22.3551 211.367 21.9001C212.467 21.4451 227.577 21.0441 244.946 21.0091L276.524 20.9461L280.946 23.9261ZM244.101 99.7151C246.911 102.528 247.367 103.677 247.367 107.946C247.367 112.216 246.912 113.363 244.098 116.177L240.829 119.446H227.867H214.905L211.636 116.177C208.833 113.374 208.367 112.208 208.367 108.007C208.367 104.164 208.906 102.527 210.867 100.417C214.631 96.3681 216.356 95.9701 229.101 96.2181L240.834 96.4461L244.101 99.7151ZM103.501 137.532C85.2669 141.946 69.7449 157.637 65.4069 176.039C56.6159 213.333 90.4799 247.197 127.774 238.406C146.42 234.011 161.932 218.499 166.327 199.853C170.485 182.212 165.356 164.39 152.389 151.424C139.412 138.446 121.156 133.259 103.501 137.532ZM391.501 137.532C373.267 141.946 357.745 157.637 353.407 176.039C346.893 203.675 364.338 231.895 391.96 238.406C429.254 247.197 463.118 213.333 454.327 176.039C447.794 148.321 419.238 130.819 391.501 137.532ZM123.251 165.162C131.845 167.701 139.867 178.701 139.867 187.946C139.867 197.191 131.845 208.191 123.251 210.73C113.875 213.5 106.4 211.547 99.3329 204.48C89.2159 194.363 89.2159 181.54 99.3329 171.401C106.348 164.371 113.904 162.4 123.251 165.162ZM411.251 165.162C419.845 167.701 427.867 178.701 427.867 187.946C427.867 200.337 416.258 211.946 403.867 211.946C397.577 211.946 392.512 209.659 387.333 204.48C377.216 194.363 377.216 181.54 387.333 171.401C394.348 164.371 401.904 162.4 411.251 165.162Z" fill="#00D53B"/>
</svg>
