<svg width="1153" height="1024" viewBox="0 0 1153 1024" fill="none" xmlns="http://www.w3.org/2000/svg">
<path fill-rule="evenodd" clip-rule="evenodd" d="M36.206 1.70294C19.303 6.24794 6.04497 19.6949 1.58597 36.8149C-0.549027 45.0109 -0.521027 83.3399 1.62497 91.5799C6.11797 108.828 19.446 122.113 36.787 126.63C41.61 127.886 54.009 128.122 115.304 128.122C155.339 128.122 188.094 128.372 188.094 128.678C188.094 128.984 219.36 282.097 257.573 468.928C295.787 655.76 327.33 810.016 327.668 811.72C328.247 814.634 327.909 815.071 321.939 819.111C295.799 836.803 278.209 864.433 273.549 895.122C267.083 937.698 285.641 980.435 321.194 1004.84C333.575 1013.34 351.494 1020.3 367.094 1022.67C434.791 1032.95 495.941 980.535 496.068 912.122C496.117 885.885 486.293 859.593 468.7 838.872L462.969 832.122H672.13H881.292L876.343 837.872C853.862 863.991 844.5 895.876 849.549 929.122C854.129 959.283 871.847 987.441 897.194 1004.84C909.575 1013.34 927.494 1020.3 943.094 1022.67C1010.78 1032.95 1072.05 980.425 1072.05 912.122C1072.05 885.144 1061.88 858.631 1043.38 837.381C1036.54 829.53 1023.58 819.106 1015.38 814.87C1011.93 813.083 1009.1 811.342 1009.1 810.999C1009.1 810.656 1011.62 799.406 1014.71 785.999C1017.79 772.592 1020.54 758.687 1020.82 755.099C1022.57 732.65 1007 711.5 984.401 705.614C979.392 704.309 944.631 704.122 707.384 704.122C558.174 704.122 436.094 703.867 436.094 703.555C436.094 702.671 424.063 643.838 423.481 641.88C422.991 640.228 438.242 640.125 721.279 639.88L1019.59 639.622L1025.38 637.434C1038.18 632.596 1049.5 621.677 1053.9 609.918C1057.33 600.737 1152.09 181.934 1152.09 175.933C1152.09 154.62 1136.67 135.155 1115.4 129.614C1110.37 128.304 1061.51 128.122 714.065 128.122H318.457L308.886 81.1579C298.126 28.3509 297.099 25.1729 287.59 15.2029C281.346 8.65694 273.321 3.93694 264.552 1.65294C255.972 -0.582057 44.53 -0.536057 36.206 1.70294Z" fill="white"/>
</svg>
