<svg width="146" height="102" viewBox="0 0 146 102" fill="none" xmlns="http://www.w3.org/2000/svg">
<rect x="0.5" y="0.5" width="145" height="100.077" rx="3.5" fill="#006FCF" stroke="#F3F3F3"/>
<path fill-rule="evenodd" clip-rule="evenodd" d="M29.8627 73.0121V52.2041H53.3326L55.8507 55.2855L58.452 52.2041H143.642V71.5771C143.642 71.5771 141.414 72.9913 138.838 73.0121H91.6661L88.827 69.732V73.0121H79.5238V67.4129C79.5238 67.4129 78.2529 68.1945 75.5055 68.1945H72.3389V73.0121H58.2529L55.7385 69.8645L53.1854 73.0121H29.8627ZM2.51706 36.5213L7.79761 24.9385H16.9298L19.9266 31.4267V24.9385H31.2787L33.0627 29.628L34.7922 24.9385H85.7515V27.296C85.7515 27.296 88.4303 24.9385 92.8329 24.9385L109.367 24.9928L112.312 31.3961V24.9385H121.812L124.427 28.6167V24.9385H134.014V45.7465H124.427L121.921 42.0564V45.7465H107.964L106.56 42.4664H102.808L101.427 45.7465H91.9613C88.1731 45.7465 85.7515 43.4371 85.7515 43.4371V45.7465H71.4796L68.647 42.4664V45.7465H15.5769L14.1742 42.4664H10.4339L9.04114 45.7465H2.51706L2.51706 36.5213ZM2.54459 43.0838L9.66691 27.5035H15.0665L22.182 43.0838H17.4429L16.1355 39.9639H8.49574L7.18159 43.0838H2.54459ZM14.631 36.5815L12.3023 31.1296L9.96678 36.5815H14.631ZM22.6721 43.0815V27.5011L29.2615 27.5241L33.0942 37.5693L36.835 27.5011H43.3718V43.0815H39.2318V31.6012L34.8434 43.0815H31.2127L26.812 31.6012V43.0815H22.6721ZM46.2044 43.0815V27.5011H59.7136V30.9862H50.3879V33.6512H59.4957V36.9313H50.3879V39.6989H59.7136V43.0815H46.2044ZM62.11 43.0838V27.5035H71.3227C74.3753 27.5035 77.1105 29.2795 77.1105 32.5581C77.1105 35.3609 74.8044 37.1662 72.5688 37.3437L78.0161 43.0838H72.9569L67.9931 37.5487H66.25V43.0838H62.11ZM70.9827 30.9884H66.2504V34.2685H71.044C71.8737 34.2685 72.9437 33.6636 72.9437 32.6285C72.9437 31.8239 72.1179 30.9884 70.9827 30.9884ZM83.0277 43.0815H78.8006V27.5011H83.0277V43.0815ZM93.0507 43.0815H92.1383C87.7236 43.0815 85.0432 39.8091 85.0432 35.3553C85.0432 30.7916 87.6936 27.5011 93.2686 27.5011H97.8443V31.1912H93.1013C90.8382 31.1912 89.2376 32.8529 89.2376 35.3938C89.2376 38.4111 91.0678 39.6784 93.7044 39.6784H94.7938L93.0507 43.0815ZM94.9373 43.0838L102.06 27.5035H107.459L114.575 43.0838H109.836L108.528 39.9639H100.888L99.5743 43.0838H94.9373ZM107.024 36.5815L104.695 31.1296L102.36 36.5815H107.024ZM115.058 43.0815V27.5011H120.321L127.042 37.2901V27.5011H131.182V43.0815H126.089L119.198 33.0362V43.0815H115.058ZM32.6951 70.3471V54.7667H46.2043V58.2518H36.8786V60.9169H45.9864V64.197H36.8786V66.9645H46.2043V70.3471H32.6951ZM98.8904 70.3471V54.7667H112.4V58.2518H103.074V60.9169H112.138V64.197H103.074V66.9645H112.4V70.3471H98.8904ZM46.7284 70.3471L53.306 62.653L46.5718 54.7667H51.7875L55.7981 59.642L59.8223 54.7667H64.8338L58.1881 62.5569L64.7778 70.3471H59.5628L55.6687 65.5487L51.8693 70.3471H46.7284ZM65.2701 70.3495V54.7691H74.4147C78.1669 54.7691 80.359 57.0445 80.359 60.0096C80.359 63.5889 77.5641 65.4294 73.8767 65.4294H69.5189V70.3495H65.2701ZM74.1079 58.2927H69.5186V61.8803H74.0943C75.3035 61.8803 76.1507 61.1264 76.1507 60.0865C76.1507 58.9797 75.2992 58.2927 74.1079 58.2927ZM82.1567 70.3471V54.7667H91.3694C94.422 54.7667 97.1571 56.5427 97.1571 59.8214C97.1571 62.6242 94.851 64.4295 92.6154 64.607L98.0627 70.3471H93.0035L88.0397 64.812H86.2966V70.3471H82.1567ZM91.0291 58.2517H86.2968V61.5318H91.0904C91.9202 61.5318 92.9901 60.9268 92.9901 59.8917C92.9901 59.0872 92.1643 58.2517 91.0291 58.2517ZM114.317 70.3471V66.9645H122.602C123.828 66.9645 124.359 66.3412 124.359 65.6576C124.359 65.0027 123.83 64.3405 122.602 64.3405H118.858C115.604 64.3405 113.791 62.4749 113.791 59.6741C113.791 57.1759 115.451 54.7667 120.287 54.7667H128.349L126.606 58.2723H119.633C118.301 58.2723 117.89 58.9304 117.89 59.5587C117.89 60.2046 118.397 60.9169 119.415 60.9169H123.338C126.965 60.9169 128.54 62.8531 128.54 65.3886C128.54 68.1145 126.785 70.3471 123.14 70.3471H114.317ZM128.905 70.3471V66.9645H137.19C138.416 66.9645 138.947 66.3412 138.947 65.6576C138.947 65.0027 138.418 64.3405 137.19 64.3405H133.446C130.192 64.3405 128.379 62.4749 128.379 59.6741C128.379 57.1759 130.039 54.7667 134.875 54.7667H142.937L141.194 58.2723H134.222C132.889 58.2723 132.478 58.9304 132.478 59.5587C132.478 60.2046 132.985 60.9169 134.004 60.9169H137.926C141.554 60.9169 143.128 62.8531 143.128 65.3886C143.128 68.1145 141.374 70.3471 137.728 70.3471H128.905Z" fill="white"/>
</svg>
